<?xml version="1.0" encoding="UTF-8"?>
<svg id="Layer_1" data-name="Layer 1" xmlns="http://www.w3.org/2000/svg" viewBox="0 0 1600 1200">
  <defs>
    <style>
      .cls-1 {
        fill: #fff;
      }

      .cls-2 {
        fill: #04a1ff;
      }
    </style>
  </defs>
  <rect class="cls-1" width="1600" height="1200"/>
  <g>
    <circle class="cls-2" cx="1143.04" cy="600" r="134.41"/>
    <g>
      <path d="m364.63,645.57l-5.64,15.68h-36.44l46.67-120.98h40.31l47.45,120.98h-35.45l-5.8-15.68h-51.1Zm9.12-27.26h31.89l-15.87-45.18-16.02,45.18Z"/>
      <path d="m559.29,565.85v69.45c0,7.22-.87,13.88-2.62,19.98-1.74,6.1-4.54,11.73-8.4,16.9-3.86,5.16-9.31,9.21-16.34,12.13-7.03,2.92-15.34,4.39-24.93,4.39-17.92,0-31.86-3.36-41.82-10.08l12.13-21.28c6.35,4.11,15,6.16,25.95,6.16,7.34,0,12.85-1.74,16.52-5.23,3.67-3.48,5.51-7.53,5.51-12.14-2.37,3.24-5.63,5.63-9.8,7.19-4.17,1.56-8.37,2.33-12.6,2.33-13.07,0-23.43-4.36-31.09-13.07-7.66-8.71-11.48-19.6-11.48-32.67s3.83-24.15,11.48-32.86c7.66-8.71,18.02-13.07,31.09-13.07,4.6,0,9.24,1,13.91,2.99,4.67,1.99,8.12,5.17,10.36,9.52v-10.64h32.11Zm-38.09,55.92c2.86-3.05,4.29-7,4.29-11.85s-1.43-8.84-4.29-11.95c-2.87-3.11-6.53-4.67-11.02-4.67s-8.15,1.56-11.02,4.67c-2.86,3.11-4.29,7.09-4.29,11.95s1.43,8.81,4.29,11.85c2.86,3.05,6.53,4.57,11.02,4.57s8.15-1.52,11.02-4.57Z"/>
      <path d="m659.17,654.16c-9.71,5.97-21.1,8.96-34.17,8.96-15.06,0-27.76-4.45-38.09-13.35-10.33-8.9-15.5-20.94-15.5-36.13,0-13.94,4.76-25.7,14.28-35.29,9.52-9.58,21.31-14.38,35.38-14.38s24.77,4.83,33.98,14.47c9.21,9.65,13.82,21.38,13.82,35.19l-.75,11.02h-63.29c2.61,8.21,9.4,12.32,20.35,12.32,8.21,0,15.74-1.93,22.59-5.79l11.39,22.96Zm-38.09-63.48c-4.23,0-7.91,1.37-11.02,4.11-3.11,2.74-5.17,6.29-6.16,10.64h33.98c-.5-4.36-2.33-7.9-5.51-10.64-3.17-2.74-6.94-4.11-11.3-4.11Z"/>
      <path d="m681.95,661.25v-95.4h32.11v10.46c7.09-8.22,16.68-12.32,28.75-12.32,5.85,0,10.92.97,15.22,2.89,4.29,1.93,7.59,4.27,9.9,7,2.3,2.74,4.11,6.23,5.41,10.46,1.31,4.23,2.12,8.09,2.43,11.58.31,3.49.47,7.53.47,12.13v53.21h-33.98v-48.92c0-11.08-3.55-16.62-10.64-16.62-4.85,0-8.68,1.9-11.48,5.69-2.8,3.8-4.2,8.75-4.2,14.84v45h-33.98Z"/>
      <path d="m857.64,626.34l16.99,25.02c-9.33,7.84-20.91,11.76-34.73,11.76-14.56,0-26.79-4.79-36.69-14.37-9.9-9.58-14.84-21.28-14.84-35.1s4.95-25.7,14.84-35.29c9.9-9.58,22.12-14.38,36.69-14.38,12.57,0,23.83,3.98,33.79,11.95l-19.6,23.52c-3.98-3.73-8.4-5.6-13.26-5.6-5.48,0-9.87,1.87-13.16,5.6-3.3,3.73-4.95,8.47-4.95,14.19s1.68,10.58,5.04,14.19c3.36,3.61,7.96,5.41,13.82,5.41s11.45-2.3,16.06-6.91Z"/>
      <path d="m895.35,688.7v-30.06c8.59,0,14.12-2.18,16.62-6.53l2.8-5.23-36.97-81.03h33.61l18.48,48.91,16.62-48.91h33.61l-39.95,94.84c-2.62,6.22-5.79,11.36-9.52,15.4-3.73,4.04-7.84,6.91-12.32,8.59-4.48,1.68-8.37,2.77-11.67,3.27-3.3.5-7.07.75-11.29.75Z"/>
    </g>
    <g>
      <path class="cls-1" d="m1245.58,556.95c-13.41-13.28-30.7-19.92-51.77-19.92-17.22,0-31.87,4.43-43.93,13.3.11.09.18.18.27.27,9.81,9.72,16.52,20.98,19.96,33.67.61-.77,1.21-1.51,1.89-2.21,5.99-6.32,13.26-9.5,21.81-9.5,9.09,0,16.52,3.15,22.33,9.41,1.69,1.82,3.13,3.8,4.3,5.92h3.13v-17.06l39.46,33.87-39.46,37.79v-17.85h-3.24c-1.15,2.09-2.54,4.01-4.19,5.78-5.81,6.35-13.23,9.52-22.33,9.52s-16.32-3.17-22.12-9.52c-.59-.65-1.13-1.31-1.64-1.96-3.49,12.63-10.11,23.81-19.76,33.42-.14.14-.23.23-.36.34,12.06,8.87,26.69,13.28,43.89,13.28,21.2,0,38.51-6.66,51.88-19.96,13.35-13.28,20.05-29.8,20.05-49.49s-6.73-35.81-20.17-49.11Z"/>
      <path class="cls-1" d="m1163.96,603.83h-66.95v13.8h18.39v14.68c-6.13,4.19-12.31,6.65-18.59,7.38-.5.07-1,.12-1.49.15-.52.05-1.02.07-1.55.1-.57.02-1.12.02-1.69.02-.37,0-.77,0-1.15-.02-7.33-.22-13.55-2.62-18.71-7.28-.4-.32-.77-.67-1.17-1.07-.37-.37-.75-.75-1.12-1.15-5.93-6.33-8.89-14.45-8.89-24.37s3.06-17.64,9.19-24c.4-.4.8-.8,1.2-1.15.37-.37.77-.75,1.17-1.07,5.26-4.63,11.39-7.03,18.41-7.25.35-.02.72-.02,1.07-.02.65,0,1.27.02,1.89.05.47,0,.97.02,1.44.1.52.02,1.07.07,1.6.17.52.05,1.05.12,1.57.25,1.5.27,2.97.67,4.39,1.2.3.1.62.22.92.35.37.15.72.3,1.1.45.75.35,1.5.7,2.22,1.1,1.32.75,2.59,1.59,3.79,2.57h47.82c-3.36-8.02-8.32-15.3-14.95-21.85-13.43-13.28-30.7-19.93-51.78-19.93h-.52c-20.86.1-37.9,6.75-51.16,19.93-13.36,13.31-20.06,29.68-20.06,49.11s6.7,36.2,20.06,49.49c9.57,9.54,21.13,15.65,34.68,18.39,1.94.37,3.94.7,5.95.95,2.32.25,4.68.45,7.13.55,1.3.05,2.59.07,3.91.07h.35c.87,0,1.74-.02,2.62-.05.45-.02.87-.05,1.3-.05.75-.02,1.5-.07,2.22-.15,1.44-.1,2.87-.27,4.26-.45,15.05-1.74,27.86-7.33,38.37-16.74.35-.3.7-.62,1.02-.92.57-.55,1.17-1.02,1.74-1.59,13.36-13.28,20.06-29.8,20.06-49.49,0-.75,0-1.49-.05-2.24Z"/>
      <polygon class="cls-1" points="1228.43 631.11 1228.43 619.78 1093.09 619.78 1093.09 592.75 1228.43 592.75 1228.43 581.42 1255.79 604.9 1228.43 631.11"/>
    </g>
  </g>
</svg>